<mxfile host="app.diagrams.net" agent="Mozilla/5.0 (Windows NT 10.0; Win64; x64) AppleWebKit/537.36 (KHTML, like Gecko) Chrome/130.0.0.0 Safari/537.36" version="24.8.3">
  <diagram name="Page-1" id="LbfNn3xY06wEzmVj6kVV">
    <mxGraphModel dx="7565" dy="5042" grid="1" gridSize="10" guides="1" tooltips="1" connect="1" arrows="1" fold="1" page="1" pageScale="1" pageWidth="827" pageHeight="1169" math="0" shadow="0">
      <root>
        <mxCell id="0" />
        <mxCell id="1" parent="0" />
        <mxCell id="1sPMQlWo6MiPR7F61FHY-218" value="" style="rounded=0;whiteSpace=wrap;html=1;fillColor=#dae8fc;strokeColor=#6c8ebf;" parent="1" vertex="1">
          <mxGeometry x="-3650" y="-2190" width="1930" height="2870" as="geometry" />
        </mxCell>
        <mxCell id="1sPMQlWo6MiPR7F61FHY-237" value="PROPOSED USECASE DIAGRAM" style="text;html=1;align=center;verticalAlign=middle;whiteSpace=wrap;rounded=0;fontSize=46;" parent="1" vertex="1">
          <mxGeometry x="-3670" y="-2380" width="754.88" height="110" as="geometry" />
        </mxCell>
        <mxCell id="kd7WJNNmSs0O6YzTmHxb-2" value="&lt;font style=&quot;font-size: 24px;&quot;&gt;Login&lt;/font&gt;" style="ellipse;whiteSpace=wrap;html=1;" parent="1" vertex="1">
          <mxGeometry x="-2720" y="-860" width="295.75" height="70" as="geometry" />
        </mxCell>
        <mxCell id="kd7WJNNmSs0O6YzTmHxb-3" value="&lt;font style=&quot;font-size: 24px;&quot;&gt;View Product&lt;/font&gt;" style="ellipse;whiteSpace=wrap;html=1;" parent="1" vertex="1">
          <mxGeometry x="-3555.75" y="-2050" width="295.75" height="70" as="geometry" />
        </mxCell>
        <mxCell id="kd7WJNNmSs0O6YzTmHxb-4" value="&lt;font style=&quot;font-size: 24px;&quot;&gt;Search Product&lt;/font&gt;" style="ellipse;whiteSpace=wrap;html=1;" parent="1" vertex="1">
          <mxGeometry x="-3555.75" y="-1910" width="295.75" height="70" as="geometry" />
        </mxCell>
        <mxCell id="kd7WJNNmSs0O6YzTmHxb-5" value="&lt;font style=&quot;font-size: 24px;&quot;&gt;Add Product to Cart&lt;/font&gt;" style="ellipse;whiteSpace=wrap;html=1;" parent="1" vertex="1">
          <mxGeometry x="-3555.75" y="-1700" width="295.75" height="70" as="geometry" />
        </mxCell>
        <mxCell id="kd7WJNNmSs0O6YzTmHxb-7" value="&lt;font style=&quot;font-size: 24px;&quot;&gt;Make payment&lt;/font&gt;" style="ellipse;whiteSpace=wrap;html=1;" parent="1" vertex="1">
          <mxGeometry x="-3550.75" y="-1600" width="295.75" height="70" as="geometry" />
        </mxCell>
        <mxCell id="kd7WJNNmSs0O6YzTmHxb-8" value="&lt;font style=&quot;font-size: 24px;&quot;&gt;Track&lt;span style=&quot;color: rgba(0, 0, 0, 0); font-family: monospace; font-size: 0px; text-align: start; text-wrap-mode: nowrap;&quot;&gt;%3CmxGraphModel%3E%3Croot%3E%3CmxCell%20id%3D%220%22%2F%3E%3CmxCell%20id%3D%221%22%20parent%3D%220%22%2F%3E%3CmxCell%20id%3D%222%22%20value%3D%22%26lt%3Bfont%20style%3D%26quot%3Bfont-size%3A%2024px%3B%26quot%3B%26gt%3BMake%20payment%26lt%3B%2Ffont%26gt%3B%22%20style%3D%22ellipse%3BwhiteSpace%3Dwrap%3Bhtml%3D1%3B%22%20vertex%3D%221%22%20parent%3D%221%22%3E%3CmxGeometry%20x%3D%22-3546.75%22%20y%3D%22-1414%22%20width%3D%22295.75%22%20height%3D%2270%22%20as%3D%22geometry%22%2F%3E%3C%2FmxCell%3E%3C%2Froot%3E%3C%2FmxGraphModel%3E&lt;/span&gt;&amp;nbsp;Order&lt;/font&gt;" style="ellipse;whiteSpace=wrap;html=1;" parent="1" vertex="1">
          <mxGeometry x="-3095.51" y="-1310" width="295.75" height="70" as="geometry" />
        </mxCell>
        <mxCell id="kd7WJNNmSs0O6YzTmHxb-9" value="&lt;span style=&quot;font-size: 24px;&quot;&gt;Return Order&lt;br&gt;&lt;/span&gt;" style="ellipse;whiteSpace=wrap;html=1;" parent="1" vertex="1">
          <mxGeometry x="-3105.2799999999997" y="-1220" width="241.03" height="70" as="geometry" />
        </mxCell>
        <mxCell id="kd7WJNNmSs0O6YzTmHxb-11" value="&lt;span style=&quot;font-size: 24px;&quot;&gt;Manage P&lt;/span&gt;&lt;span style=&quot;color: rgba(0, 0, 0, 0); font-family: monospace; font-size: 0px; text-align: start; text-wrap-mode: nowrap;&quot;&gt;%3CmxGraphModel%3E%3Croot%3E%3CmxCell%20id%3D%220%22%2F%3E%3CmxCell%20id%3D%221%22%20parent%3D%220%22%2F%3E%3CmxCell%20id%3D%222%22%20value%3D%22%26lt%3Bspan%20style%3D%26quot%3Bfont-size%3A%2024px%3B%26quot%3B%26gt%3BRequest%20Return%26amp%3Bnbsp%3B%26lt%3B%2Fspan%26gt%3B%22%20style%3D%22ellipse%3BwhiteSpace%3Dwrap%3Bhtml%3D1%3B%22%20vertex%3D%221%22%20parent%3D%221%22%3E%3CmxGeometry%20x%3D%22-3550.75%22%20y%3D%22-1239%22%20width%3D%22295.75%22%20height%3D%2270%22%20as%3D%22geometry%22%2F%3E%3C%2FmxCell%3E%3C%2Froot%3E%3C%2FmxGraphModel%3E&lt;/span&gt;&lt;span style=&quot;font-size: 24px;&quot;&gt;rofile&lt;/span&gt;" style="ellipse;whiteSpace=wrap;html=1;" parent="1" vertex="1">
          <mxGeometry x="-3541.69" y="-1510" width="295.75" height="70" as="geometry" />
        </mxCell>
        <mxCell id="kd7WJNNmSs0O6YzTmHxb-12" value="&lt;span style=&quot;font-size: 24px;&quot;&gt;Manage Wishlist&lt;/span&gt;&lt;span style=&quot;color: rgba(0, 0, 0, 0); font-family: monospace; font-size: 0px; text-align: start; text-wrap-mode: nowrap;&quot;&gt;%3CmxGraphModel%3E%3Croot%3E%3CmxCell%20id%3D%220%22%2F%3E%3CmxCell%20id%3D%221%22%20parent%3D%220%22%2F%3E%3CmxCell%20id%3D%222%22%20value%3D%22%26lt%3Bspan%20style%3D%26quot%3Bfont-size%3A%2024px%3B%26quot%3B%26gt%3BRequest%20Return%26amp%3Bnbsp%3B%26lt%3B%2Fspan%26gt%3B%22%20style%3D%22ellipse%3BwhiteSpace%3Dwrap%3Bhtml%3D1%3B%22%20vertex%3D%221%22%20parent%3D%221%22%3E%3CmxGeometry%20x%3D%22-3550.75%22%20y%3D%22-1239%22%20width%3D%22295.75%22%20height%3D%2270%22%20as%3D%22geometry%22%2F%3E%3C%2FmxCell%3E%3C%2Froot%3E%3C%2FmxGraphMode&lt;/span&gt;" style="ellipse;whiteSpace=wrap;html=1;" parent="1" vertex="1">
          <mxGeometry x="-3555.75" y="-1810" width="295.75" height="70" as="geometry" />
        </mxCell>
        <mxCell id="kd7WJNNmSs0O6YzTmHxb-13" value="&lt;span style=&quot;font-size: 24px;&quot;&gt;View Order Status&lt;/span&gt;" style="ellipse;whiteSpace=wrap;html=1;" parent="1" vertex="1">
          <mxGeometry x="-3541.69" y="-1410" width="295.75" height="70" as="geometry" />
        </mxCell>
        <mxCell id="kd7WJNNmSs0O6YzTmHxb-16" value="&lt;font style=&quot;font-size: 24px;&quot;&gt;Customer&lt;/font&gt;" style="shape=umlActor;verticalLabelPosition=bottom;verticalAlign=top;html=1;outlineConnect=0;" parent="1" vertex="1">
          <mxGeometry x="-3960" y="-1400" width="60" height="106" as="geometry" />
        </mxCell>
        <mxCell id="kd7WJNNmSs0O6YzTmHxb-34" value="&lt;font style=&quot;font-size: 24px;&quot;&gt;Currier Servce&amp;nbsp;&lt;/font&gt;" style="shape=umlActor;verticalLabelPosition=bottom;verticalAlign=top;html=1;outlineConnect=0;" parent="1" vertex="1">
          <mxGeometry x="-1520" y="-870" width="60" height="106" as="geometry" />
        </mxCell>
        <mxCell id="kd7WJNNmSs0O6YzTmHxb-44" value="&lt;font style=&quot;font-size: 24px;&quot;&gt;Shop Owner/Admin&lt;/font&gt;" style="shape=umlActor;verticalLabelPosition=bottom;verticalAlign=top;html=1;outlineConnect=0;" parent="1" vertex="1">
          <mxGeometry x="-3930" y="-710" width="60" height="106" as="geometry" />
        </mxCell>
        <mxCell id="kd7WJNNmSs0O6YzTmHxb-45" value="&lt;font style=&quot;font-size: 24px;&quot;&gt;Add Product&lt;/font&gt;" style="ellipse;whiteSpace=wrap;html=1;" parent="1" vertex="1">
          <mxGeometry x="-3526.9099999999994" y="-930" width="295.75" height="70" as="geometry" />
        </mxCell>
        <mxCell id="kd7WJNNmSs0O6YzTmHxb-46" value="&lt;font style=&quot;font-size: 24px;&quot;&gt;Remove Product&lt;/font&gt;" style="ellipse;whiteSpace=wrap;html=1;" parent="1" vertex="1">
          <mxGeometry x="-3520" y="-840" width="295.75" height="70" as="geometry" />
        </mxCell>
        <mxCell id="kd7WJNNmSs0O6YzTmHxb-47" value="&lt;font style=&quot;font-size: 24px;&quot;&gt;Update Stock Count&lt;/font&gt;" style="ellipse;whiteSpace=wrap;html=1;" parent="1" vertex="1">
          <mxGeometry x="-3512.6" y="-594" width="295.75" height="70" as="geometry" />
        </mxCell>
        <mxCell id="kd7WJNNmSs0O6YzTmHxb-48" value="&lt;font style=&quot;font-size: 24px;&quot;&gt;Track Stock Garment&amp;nbsp;&lt;/font&gt;" style="ellipse;whiteSpace=wrap;html=1;" parent="1" vertex="1">
          <mxGeometry x="-3548.2200000000003" y="-510" width="390.69" height="70" as="geometry" />
        </mxCell>
        <mxCell id="kd7WJNNmSs0O6YzTmHxb-49" value="&lt;font style=&quot;font-size: 24px;&quot;&gt;Analyze Product Sales&lt;br&gt;and&amp;nbsp;&lt;br&gt;Report Generation&lt;/font&gt;" style="ellipse;whiteSpace=wrap;html=1;" parent="1" vertex="1">
          <mxGeometry x="-3569.89" y="-400" width="422.15" height="104" as="geometry" />
        </mxCell>
        <mxCell id="kd7WJNNmSs0O6YzTmHxb-50" value="&lt;span style=&quot;font-size: 24px;&quot;&gt;Manage Employees&lt;/span&gt;" style="ellipse;whiteSpace=wrap;html=1;" parent="1" vertex="1">
          <mxGeometry x="-3512.6" y="-260" width="295.75" height="70" as="geometry" />
        </mxCell>
        <mxCell id="kd7WJNNmSs0O6YzTmHxb-51" value="&lt;span style=&quot;font-size: 24px;&quot;&gt;Manage Expenses&lt;/span&gt;" style="ellipse;whiteSpace=wrap;html=1;" parent="1" vertex="1">
          <mxGeometry x="-3520" y="-170" width="295.75" height="70" as="geometry" />
        </mxCell>
        <mxCell id="kd7WJNNmSs0O6YzTmHxb-52" value="&lt;span style=&quot;font-size: 24px;&quot;&gt;Release Stock&lt;/span&gt;" style="ellipse;whiteSpace=wrap;html=1;" parent="1" vertex="1">
          <mxGeometry x="-3519.22" y="-80" width="295.75" height="70" as="geometry" />
        </mxCell>
        <mxCell id="kd7WJNNmSs0O6YzTmHxb-69" value="&lt;font style=&quot;font-size: 24px;&quot;&gt;Emloyee&lt;/font&gt;" style="shape=umlActor;verticalLabelPosition=bottom;verticalAlign=top;html=1;outlineConnect=0;" parent="1" vertex="1">
          <mxGeometry x="-3810" y="140" width="60" height="110" as="geometry" />
        </mxCell>
        <mxCell id="kd7WJNNmSs0O6YzTmHxb-70" value="&lt;font style=&quot;font-size: 24px;&quot;&gt;Process Orders&lt;/font&gt;" style="ellipse;whiteSpace=wrap;html=1;" parent="1" vertex="1">
          <mxGeometry x="-3520" y="390" width="295.75" height="70" as="geometry" />
        </mxCell>
        <mxCell id="kd7WJNNmSs0O6YzTmHxb-73" value="&lt;font style=&quot;font-size: 24px;&quot;&gt;Conform And Deliver Order&lt;/font&gt;" style="ellipse;whiteSpace=wrap;html=1;" parent="1" vertex="1">
          <mxGeometry x="-3555.75" y="300" width="390.69" height="70" as="geometry" />
        </mxCell>
        <mxCell id="kd7WJNNmSs0O6YzTmHxb-78" value="&lt;font style=&quot;font-size: 24px;&quot;&gt;Update Inventory After delivered&lt;/font&gt;" style="ellipse;whiteSpace=wrap;html=1;" parent="1" vertex="1">
          <mxGeometry x="-3569.8900000000003" y="490" width="390.69" height="70" as="geometry" />
        </mxCell>
        <mxCell id="kd7WJNNmSs0O6YzTmHxb-84" value="&lt;font style=&quot;font-size: 18px;&quot;&gt;&amp;lt;&amp;lt;include&amp;gt;&amp;gt;&lt;/font&gt;" style="endArrow=open;endSize=12;dashed=1;html=1;rounded=0;elbow=vertical;entryX=0.5;entryY=1;entryDx=0;entryDy=0;exitX=0.5;exitY=0;exitDx=0;exitDy=0;" parent="1" source="kd7WJNNmSs0O6YzTmHxb-4" target="kd7WJNNmSs0O6YzTmHxb-3" edge="1">
          <mxGeometry width="160" relative="1" as="geometry">
            <mxPoint x="-3350" y="-1900" as="sourcePoint" />
            <mxPoint x="-3190" y="-1900" as="targetPoint" />
          </mxGeometry>
        </mxCell>
        <mxCell id="TTVpZ2c57f-uQKOhVj6A-1" value="&lt;span style=&quot;font-size: 24px;&quot;&gt;Add Wish Item&lt;/span&gt;" style="ellipse;whiteSpace=wrap;html=1;" parent="1" vertex="1">
          <mxGeometry x="-3168.25" y="-2030" width="295.75" height="70" as="geometry" />
        </mxCell>
        <mxCell id="TTVpZ2c57f-uQKOhVj6A-2" value="&lt;span style=&quot;font-size: 24px;&quot;&gt;Remove Wish Item&lt;/span&gt;" style="ellipse;whiteSpace=wrap;html=1;" parent="1" vertex="1">
          <mxGeometry x="-3168.25" y="-1940" width="295.75" height="70" as="geometry" />
        </mxCell>
        <mxCell id="TTVpZ2c57f-uQKOhVj6A-4" value="&lt;font style=&quot;font-size: 18px;&quot;&gt;&amp;lt;&amp;lt;include&amp;gt;&amp;gt;&lt;/font&gt;" style="endArrow=open;endSize=12;dashed=1;html=1;rounded=0;elbow=vertical;exitX=0.91;exitY=0.21;exitDx=0;exitDy=0;exitPerimeter=0;entryX=0;entryY=1;entryDx=0;entryDy=0;" parent="1" source="kd7WJNNmSs0O6YzTmHxb-12" target="TTVpZ2c57f-uQKOhVj6A-1" edge="1">
          <mxGeometry width="160" relative="1" as="geometry">
            <mxPoint x="-3398" y="-1900" as="sourcePoint" />
            <mxPoint x="-3398" y="-1970" as="targetPoint" />
          </mxGeometry>
        </mxCell>
        <mxCell id="TTVpZ2c57f-uQKOhVj6A-5" value="&lt;font style=&quot;font-size: 18px;&quot;&gt;&amp;lt;&amp;lt;include&amp;gt;&amp;gt;&lt;/font&gt;" style="endArrow=open;endSize=12;dashed=1;html=1;rounded=0;elbow=vertical;exitX=0.926;exitY=0.21;exitDx=0;exitDy=0;exitPerimeter=0;entryX=0.124;entryY=0.827;entryDx=0;entryDy=0;entryPerimeter=0;" parent="1" source="kd7WJNNmSs0O6YzTmHxb-12" target="TTVpZ2c57f-uQKOhVj6A-2" edge="1">
          <mxGeometry width="160" relative="1" as="geometry">
            <mxPoint x="-3280" y="-1765" as="sourcePoint" />
            <mxPoint x="-3166" y="-1970" as="targetPoint" />
          </mxGeometry>
        </mxCell>
        <mxCell id="TTVpZ2c57f-uQKOhVj6A-6" value="&lt;span style=&quot;font-size: 24px;&quot;&gt;Add Cart Item&lt;/span&gt;" style="ellipse;whiteSpace=wrap;html=1;" parent="1" vertex="1">
          <mxGeometry x="-3130" y="-1840" width="235.75" height="70" as="geometry" />
        </mxCell>
        <mxCell id="TTVpZ2c57f-uQKOhVj6A-7" value="&lt;span style=&quot;font-size: 24px;&quot;&gt;Remove Cart Item&lt;/span&gt;" style="ellipse;whiteSpace=wrap;html=1;" parent="1" vertex="1">
          <mxGeometry x="-3110" y="-1760" width="230" height="70" as="geometry" />
        </mxCell>
        <mxCell id="TTVpZ2c57f-uQKOhVj6A-8" value="&lt;font style=&quot;font-size: 18px;&quot;&gt;&amp;lt;&amp;lt;include&amp;gt;&amp;gt;&lt;/font&gt;" style="endArrow=open;endSize=12;dashed=1;html=1;rounded=0;elbow=vertical;exitX=0.971;exitY=0.394;exitDx=0;exitDy=0;exitPerimeter=0;entryX=0;entryY=1;entryDx=0;entryDy=0;" parent="1" source="kd7WJNNmSs0O6YzTmHxb-5" target="TTVpZ2c57f-uQKOhVj6A-6" edge="1">
          <mxGeometry width="160" relative="1" as="geometry">
            <mxPoint x="-3275" y="-1765" as="sourcePoint" />
            <mxPoint x="-3143" y="-1902" as="targetPoint" />
          </mxGeometry>
        </mxCell>
        <mxCell id="TTVpZ2c57f-uQKOhVj6A-9" value="&lt;font style=&quot;font-size: 18px;&quot;&gt;&amp;lt;&amp;lt;include&amp;gt;&amp;gt;&lt;/font&gt;" style="endArrow=open;endSize=12;dashed=1;html=1;rounded=0;elbow=vertical;entryX=0.038;entryY=0.632;entryDx=0;entryDy=0;entryPerimeter=0;exitX=0.995;exitY=0.361;exitDx=0;exitDy=0;exitPerimeter=0;" parent="1" source="kd7WJNNmSs0O6YzTmHxb-5" target="TTVpZ2c57f-uQKOhVj6A-7" edge="1">
          <mxGeometry width="160" relative="1" as="geometry">
            <mxPoint x="-3260" y="-1670" as="sourcePoint" />
            <mxPoint x="-3137" y="-1740" as="targetPoint" />
          </mxGeometry>
        </mxCell>
        <mxCell id="TTVpZ2c57f-uQKOhVj6A-11" value="&lt;font style=&quot;font-size: 18px;&quot;&gt;&amp;lt;&amp;lt;include&amp;gt;&amp;gt;&lt;/font&gt;" style="endArrow=open;endSize=12;dashed=1;html=1;rounded=0;elbow=vertical;entryX=0;entryY=0.5;entryDx=0;entryDy=0;exitX=0.985;exitY=0.68;exitDx=0;exitDy=0;exitPerimeter=0;" parent="1" source="kd7WJNNmSs0O6YzTmHxb-5" target="TTVpZ2c57f-uQKOhVj6A-16" edge="1">
          <mxGeometry width="160" relative="1" as="geometry">
            <mxPoint x="-3251" y="-1665" as="sourcePoint" />
            <mxPoint x="-3119.999999999997" y="-1645" as="targetPoint" />
          </mxGeometry>
        </mxCell>
        <mxCell id="TTVpZ2c57f-uQKOhVj6A-16" value="&lt;font style=&quot;font-size: 24px;&quot;&gt;Update Quantities&lt;/font&gt;" style="ellipse;whiteSpace=wrap;html=1;" parent="1" vertex="1">
          <mxGeometry x="-3120" y="-1680" width="230" height="70" as="geometry" />
        </mxCell>
        <mxCell id="TTVpZ2c57f-uQKOhVj6A-17" value="&lt;font style=&quot;font-size: 24px;&quot;&gt;Delete Profile&lt;/font&gt;" style="ellipse;whiteSpace=wrap;html=1;" parent="1" vertex="1">
          <mxGeometry x="-3130" y="-1510" width="230" height="70" as="geometry" />
        </mxCell>
        <mxCell id="TTVpZ2c57f-uQKOhVj6A-18" value="&lt;font style=&quot;font-size: 24px;&quot;&gt;Edit Profile&lt;/font&gt;" style="ellipse;whiteSpace=wrap;html=1;" parent="1" vertex="1">
          <mxGeometry x="-3127.12" y="-1590" width="230" height="70" as="geometry" />
        </mxCell>
        <mxCell id="TTVpZ2c57f-uQKOhVj6A-20" value="&lt;font style=&quot;font-size: 18px;&quot;&gt;&amp;lt;&amp;lt;include&amp;gt;&amp;gt;&lt;/font&gt;" style="endArrow=open;endSize=12;dashed=1;html=1;rounded=0;elbow=vertical;entryX=0;entryY=0.5;entryDx=0;entryDy=0;exitX=1;exitY=0.5;exitDx=0;exitDy=0;" parent="1" source="kd7WJNNmSs0O6YzTmHxb-11" target="TTVpZ2c57f-uQKOhVj6A-18" edge="1">
          <mxGeometry width="160" relative="1" as="geometry">
            <mxPoint x="-3334" y="-1120" as="sourcePoint" />
            <mxPoint x="-3190" y="-1113" as="targetPoint" />
          </mxGeometry>
        </mxCell>
        <mxCell id="TTVpZ2c57f-uQKOhVj6A-22" value="&lt;font style=&quot;font-size: 18px;&quot;&gt;&amp;lt;&amp;lt;include&amp;gt;&amp;gt;&lt;/font&gt;" style="endArrow=open;endSize=12;dashed=1;html=1;rounded=0;elbow=vertical;entryX=0;entryY=0.5;entryDx=0;entryDy=0;exitX=1;exitY=0.5;exitDx=0;exitDy=0;" parent="1" source="kd7WJNNmSs0O6YzTmHxb-11" target="TTVpZ2c57f-uQKOhVj6A-17" edge="1">
          <mxGeometry width="160" relative="1" as="geometry">
            <mxPoint x="-3253" y="-1015" as="sourcePoint" />
            <mxPoint x="-3147" y="-1075" as="targetPoint" />
          </mxGeometry>
        </mxCell>
        <mxCell id="TTVpZ2c57f-uQKOhVj6A-23" value="&lt;span style=&quot;font-size: 24px;&quot;&gt;Return Order Management&lt;br&gt;&lt;/span&gt;" style="ellipse;whiteSpace=wrap;html=1;" parent="1" vertex="1">
          <mxGeometry x="-3551.27" y="-1010" width="353.44" height="70" as="geometry" />
        </mxCell>
        <mxCell id="TTVpZ2c57f-uQKOhVj6A-26" value="&lt;font style=&quot;font-size: 18px;&quot;&gt;&amp;lt;&amp;lt;include&amp;gt;&amp;gt;&lt;/font&gt;" style="endArrow=open;endSize=12;dashed=1;html=1;rounded=0;elbow=vertical;entryX=0.5;entryY=1;entryDx=0;entryDy=0;exitX=1;exitY=0;exitDx=0;exitDy=0;" parent="1" source="TTVpZ2c57f-uQKOhVj6A-23" target="kd7WJNNmSs0O6YzTmHxb-9" edge="1">
          <mxGeometry width="160" relative="1" as="geometry">
            <mxPoint x="-3236" y="-1465" as="sourcePoint" />
            <mxPoint x="-3117" y="-1545" as="targetPoint" />
          </mxGeometry>
        </mxCell>
        <mxCell id="TTVpZ2c57f-uQKOhVj6A-28" value="&lt;span style=&quot;font-size: 24px;&quot;&gt;Forgot Password&lt;/span&gt;" style="ellipse;whiteSpace=wrap;html=1;" parent="1" vertex="1">
          <mxGeometry x="-2380.0000000000005" y="-930" width="295.75" height="70" as="geometry" />
        </mxCell>
        <mxCell id="TTVpZ2c57f-uQKOhVj6A-29" value="&lt;font style=&quot;font-size: 18px;&quot;&gt;&amp;lt;&amp;lt;include&amp;gt;&amp;gt;&lt;/font&gt;" style="endArrow=open;endSize=12;dashed=1;html=1;rounded=0;elbow=vertical;exitX=1;exitY=0.5;exitDx=0;exitDy=0;entryX=0;entryY=0.5;entryDx=0;entryDy=0;" parent="1" source="kd7WJNNmSs0O6YzTmHxb-2" target="TTVpZ2c57f-uQKOhVj6A-28" edge="1">
          <mxGeometry width="160" relative="1" as="geometry">
            <mxPoint x="-2724.25" y="-505" as="sourcePoint" />
            <mxPoint x="-2610.25" y="-710" as="targetPoint" />
          </mxGeometry>
        </mxCell>
        <mxCell id="TTVpZ2c57f-uQKOhVj6A-31" value="" style="ellipse;whiteSpace=wrap;html=1;" parent="1" vertex="1">
          <mxGeometry x="-2380.0000000000005" y="-764" width="295.75" height="120" as="geometry" />
        </mxCell>
        <mxCell id="TTVpZ2c57f-uQKOhVj6A-33" value="" style="endArrow=none;html=1;rounded=0;entryX=1;entryY=0.5;entryDx=0;entryDy=0;exitX=0;exitY=0.5;exitDx=0;exitDy=0;elbow=horizontal;" parent="1" source="TTVpZ2c57f-uQKOhVj6A-31" target="TTVpZ2c57f-uQKOhVj6A-31" edge="1">
          <mxGeometry width="50" height="50" relative="1" as="geometry">
            <mxPoint x="-2262.88" y="-415" as="sourcePoint" />
            <mxPoint x="-2212.88" y="-465" as="targetPoint" />
          </mxGeometry>
        </mxCell>
        <mxCell id="TTVpZ2c57f-uQKOhVj6A-34" value="&lt;font style=&quot;font-size: 18px;&quot;&gt;Validate Credentials&lt;/font&gt;" style="text;html=1;align=center;verticalAlign=middle;whiteSpace=wrap;rounded=0;fontSize=46;" parent="1" vertex="1">
          <mxGeometry x="-2335.97" y="-755" width="200" height="40" as="geometry" />
        </mxCell>
        <mxCell id="TTVpZ2c57f-uQKOhVj6A-35" value="&lt;font style=&quot;font-size: 18px;&quot;&gt;If the Credentials &lt;br&gt;&lt;div style=&quot;text-align: left;&quot;&gt;&lt;span style=&quot;background-color: initial;&quot;&gt;are incorrect&lt;/span&gt;&lt;/div&gt;&lt;/font&gt;" style="text;html=1;align=center;verticalAlign=middle;whiteSpace=wrap;rounded=0;fontSize=46;" parent="1" vertex="1">
          <mxGeometry x="-2380.0000000000005" y="-705" width="330" height="40" as="geometry" />
        </mxCell>
        <mxCell id="TTVpZ2c57f-uQKOhVj6A-37" value="&lt;font style=&quot;font-size: 18px;&quot;&gt;&amp;lt;&amp;lt;include&amp;gt;&amp;gt;&lt;/font&gt;" style="endArrow=open;endSize=12;dashed=1;html=1;rounded=0;elbow=vertical;exitX=1;exitY=0.5;exitDx=0;exitDy=0;entryX=0;entryY=0.5;entryDx=0;entryDy=0;" parent="1" source="kd7WJNNmSs0O6YzTmHxb-2" target="TTVpZ2c57f-uQKOhVj6A-31" edge="1">
          <mxGeometry width="160" relative="1" as="geometry">
            <mxPoint x="-2694.25" y="-845" as="sourcePoint" />
            <mxPoint x="-2630.25" y="-955" as="targetPoint" />
          </mxGeometry>
        </mxCell>
        <mxCell id="TTVpZ2c57f-uQKOhVj6A-39" value="&lt;span style=&quot;font-size: 24px;&quot;&gt;Show Error&lt;/span&gt;" style="ellipse;whiteSpace=wrap;html=1;" parent="1" vertex="1">
          <mxGeometry x="-2067" y="-820" width="295.75" height="70" as="geometry" />
        </mxCell>
        <mxCell id="TTVpZ2c57f-uQKOhVj6A-40" value="&lt;font style=&quot;font-size: 18px;&quot;&gt;&amp;lt;&amp;lt;extend&amp;gt;&amp;gt;&lt;/font&gt;" style="endArrow=open;endSize=12;dashed=1;html=1;rounded=0;elbow=vertical;exitX=0.5;exitY=1;exitDx=0;exitDy=0;entryX=1;entryY=0.5;entryDx=0;entryDy=0;" parent="1" source="TTVpZ2c57f-uQKOhVj6A-39" target="TTVpZ2c57f-uQKOhVj6A-31" edge="1">
          <mxGeometry width="160" relative="1" as="geometry">
            <mxPoint x="-2724.25" y="-505" as="sourcePoint" />
            <mxPoint x="-2559.25" y="-700" as="targetPoint" />
          </mxGeometry>
        </mxCell>
        <mxCell id="TTVpZ2c57f-uQKOhVj6A-41" value="&lt;font style=&quot;font-size: 24px;&quot;&gt;Update Product&lt;/font&gt;" style="ellipse;whiteSpace=wrap;html=1;" parent="1" vertex="1">
          <mxGeometry x="-3520" y="-692" width="295.75" height="70" as="geometry" />
        </mxCell>
        <mxCell id="yROk7lh7Q3nMvE56f7YO-6" value="&lt;font style=&quot;font-size: 24px;&quot;&gt;Update Quantities&lt;/font&gt;" style="ellipse;whiteSpace=wrap;html=1;" parent="1" vertex="1">
          <mxGeometry x="-3062.64" y="-630" width="230" height="70" as="geometry" />
        </mxCell>
        <mxCell id="yROk7lh7Q3nMvE56f7YO-7" value="&lt;font style=&quot;font-size: 24px;&quot;&gt;Delete Product&lt;/font&gt;" style="ellipse;whiteSpace=wrap;html=1;" parent="1" vertex="1">
          <mxGeometry x="-3070" y="-720" width="230" height="70" as="geometry" />
        </mxCell>
        <mxCell id="yROk7lh7Q3nMvE56f7YO-8" value="&lt;font style=&quot;font-size: 18px;&quot;&gt;&amp;lt;&amp;lt;include&amp;gt;&amp;gt;&lt;/font&gt;" style="endArrow=open;endSize=12;dashed=1;html=1;rounded=0;elbow=vertical;entryX=0;entryY=0.5;entryDx=0;entryDy=0;exitX=1;exitY=0.5;exitDx=0;exitDy=0;" parent="1" source="TTVpZ2c57f-uQKOhVj6A-41" target="yROk7lh7Q3nMvE56f7YO-7" edge="1">
          <mxGeometry width="160" relative="1" as="geometry">
            <mxPoint x="-3224.25" y="-655" as="sourcePoint" />
            <mxPoint x="-2920.25" y="-835" as="targetPoint" />
          </mxGeometry>
        </mxCell>
        <mxCell id="yROk7lh7Q3nMvE56f7YO-9" value="&lt;font style=&quot;font-size: 18px;&quot;&gt;&amp;lt;&amp;lt;include&amp;gt;&amp;gt;&lt;/font&gt;" style="endArrow=open;endSize=12;dashed=1;html=1;rounded=0;elbow=vertical;entryX=0;entryY=0.5;entryDx=0;entryDy=0;exitX=1;exitY=0.5;exitDx=0;exitDy=0;" parent="1" source="TTVpZ2c57f-uQKOhVj6A-41" target="yROk7lh7Q3nMvE56f7YO-6" edge="1">
          <mxGeometry width="160" relative="1" as="geometry">
            <mxPoint x="-3214" y="-647" as="sourcePoint" />
            <mxPoint x="-3060" y="-675" as="targetPoint" />
          </mxGeometry>
        </mxCell>
        <mxCell id="yROk7lh7Q3nMvE56f7YO-10" value="&lt;font style=&quot;font-size: 24px;&quot;&gt;Assign Works&lt;/font&gt;" style="ellipse;whiteSpace=wrap;html=1;" parent="1" vertex="1">
          <mxGeometry x="-3094.25" y="-270" width="230" height="70" as="geometry" />
        </mxCell>
        <mxCell id="yROk7lh7Q3nMvE56f7YO-11" value="&lt;font style=&quot;font-size: 18px;&quot;&gt;&amp;lt;&amp;lt;include&amp;gt;&amp;gt;&lt;/font&gt;" style="endArrow=open;endSize=12;dashed=1;html=1;rounded=0;elbow=vertical;entryX=-0.001;entryY=0.635;entryDx=0;entryDy=0;exitX=1;exitY=0.5;exitDx=0;exitDy=0;entryPerimeter=0;" parent="1" source="kd7WJNNmSs0O6YzTmHxb-50" target="yROk7lh7Q3nMvE56f7YO-10" edge="1">
          <mxGeometry width="160" relative="1" as="geometry">
            <mxPoint x="-3130" y="-200" as="sourcePoint" />
            <mxPoint x="-2969" y="-138" as="targetPoint" />
          </mxGeometry>
        </mxCell>
        <mxCell id="quE06ytLvcIypXa5CY2y-6" value="&lt;font style=&quot;font-size: 24px;&quot;&gt;Register&lt;/font&gt;" style="ellipse;whiteSpace=wrap;html=1;" parent="1" vertex="1">
          <mxGeometry x="-3526.91" y="190" width="295.75" height="70" as="geometry" />
        </mxCell>
        <mxCell id="Q6xU1axNeYU377LU5dXH-1" value="" style="endArrow=none;html=1;rounded=0;" parent="1" edge="1">
          <mxGeometry width="50" height="50" relative="1" as="geometry">
            <mxPoint x="-3120" y="-1660" as="sourcePoint" />
            <mxPoint x="-3070" y="-1710" as="targetPoint" />
          </mxGeometry>
        </mxCell>
        <mxCell id="Q6xU1axNeYU377LU5dXH-3" value="&lt;font style=&quot;font-size: 24px;&quot;&gt;Register&lt;/font&gt;" style="ellipse;whiteSpace=wrap;html=1;" parent="1" vertex="1">
          <mxGeometry x="-3548.2200000000003" y="-2160" width="295.75" height="70" as="geometry" />
        </mxCell>
        <mxCell id="Q6xU1axNeYU377LU5dXH-4" value="" style="endArrow=none;html=1;rounded=0;entryX=0;entryY=0.5;entryDx=0;entryDy=0;exitX=0.5;exitY=0.5;exitDx=0;exitDy=0;exitPerimeter=0;" parent="1" source="kd7WJNNmSs0O6YzTmHxb-16" target="Q6xU1axNeYU377LU5dXH-3" edge="1">
          <mxGeometry width="50" height="50" relative="1" as="geometry">
            <mxPoint x="-2650" y="-1220" as="sourcePoint" />
            <mxPoint x="-2600" y="-1270" as="targetPoint" />
          </mxGeometry>
        </mxCell>
        <mxCell id="Q6xU1axNeYU377LU5dXH-5" value="" style="endArrow=none;html=1;rounded=0;entryX=0;entryY=0.5;entryDx=0;entryDy=0;exitX=0.5;exitY=0.5;exitDx=0;exitDy=0;exitPerimeter=0;" parent="1" source="kd7WJNNmSs0O6YzTmHxb-16" target="kd7WJNNmSs0O6YzTmHxb-3" edge="1">
          <mxGeometry width="50" height="50" relative="1" as="geometry">
            <mxPoint x="-3920" y="-1337" as="sourcePoint" />
            <mxPoint x="-3538" y="-2115" as="targetPoint" />
          </mxGeometry>
        </mxCell>
        <mxCell id="Q6xU1axNeYU377LU5dXH-6" value="" style="endArrow=none;html=1;rounded=0;entryX=0;entryY=0.5;entryDx=0;entryDy=0;exitX=0.5;exitY=0.5;exitDx=0;exitDy=0;exitPerimeter=0;" parent="1" source="kd7WJNNmSs0O6YzTmHxb-16" target="kd7WJNNmSs0O6YzTmHxb-13" edge="1">
          <mxGeometry width="50" height="50" relative="1" as="geometry">
            <mxPoint x="-4140" y="-1440" as="sourcePoint" />
            <mxPoint x="-3758" y="-2218" as="targetPoint" />
          </mxGeometry>
        </mxCell>
        <mxCell id="Q6xU1axNeYU377LU5dXH-7" value="" style="endArrow=none;html=1;rounded=0;entryX=0;entryY=0.5;entryDx=0;entryDy=0;exitX=0.5;exitY=0.5;exitDx=0;exitDy=0;exitPerimeter=0;" parent="1" source="kd7WJNNmSs0O6YzTmHxb-16" target="kd7WJNNmSs0O6YzTmHxb-11" edge="1">
          <mxGeometry width="50" height="50" relative="1" as="geometry">
            <mxPoint x="-4130" y="-1430" as="sourcePoint" />
            <mxPoint x="-3748" y="-2208" as="targetPoint" />
          </mxGeometry>
        </mxCell>
        <mxCell id="Q6xU1axNeYU377LU5dXH-8" value="" style="endArrow=none;html=1;rounded=0;entryX=0;entryY=0.5;entryDx=0;entryDy=0;exitX=0.5;exitY=0.5;exitDx=0;exitDy=0;exitPerimeter=0;" parent="1" source="kd7WJNNmSs0O6YzTmHxb-16" target="kd7WJNNmSs0O6YzTmHxb-7" edge="1">
          <mxGeometry width="50" height="50" relative="1" as="geometry">
            <mxPoint x="-4120" y="-1420" as="sourcePoint" />
            <mxPoint x="-3738" y="-2198" as="targetPoint" />
          </mxGeometry>
        </mxCell>
        <mxCell id="Q6xU1axNeYU377LU5dXH-9" value="" style="endArrow=none;html=1;rounded=0;entryX=0;entryY=0.5;entryDx=0;entryDy=0;exitX=0.5;exitY=0.5;exitDx=0;exitDy=0;exitPerimeter=0;" parent="1" source="kd7WJNNmSs0O6YzTmHxb-16" target="kd7WJNNmSs0O6YzTmHxb-5" edge="1">
          <mxGeometry width="50" height="50" relative="1" as="geometry">
            <mxPoint x="-4110" y="-1410" as="sourcePoint" />
            <mxPoint x="-3728" y="-2188" as="targetPoint" />
          </mxGeometry>
        </mxCell>
        <mxCell id="Q6xU1axNeYU377LU5dXH-10" value="" style="endArrow=none;html=1;rounded=0;entryX=0;entryY=0.5;entryDx=0;entryDy=0;exitX=0.5;exitY=0.5;exitDx=0;exitDy=0;exitPerimeter=0;" parent="1" source="kd7WJNNmSs0O6YzTmHxb-16" target="kd7WJNNmSs0O6YzTmHxb-12" edge="1">
          <mxGeometry width="50" height="50" relative="1" as="geometry">
            <mxPoint x="-4100" y="-1400" as="sourcePoint" />
            <mxPoint x="-3718" y="-2178" as="targetPoint" />
          </mxGeometry>
        </mxCell>
        <mxCell id="Q6xU1axNeYU377LU5dXH-11" value="" style="endArrow=none;html=1;rounded=0;entryX=0;entryY=0.5;entryDx=0;entryDy=0;exitX=0.5;exitY=0.5;exitDx=0;exitDy=0;exitPerimeter=0;" parent="1" source="kd7WJNNmSs0O6YzTmHxb-16" target="kd7WJNNmSs0O6YzTmHxb-4" edge="1">
          <mxGeometry width="50" height="50" relative="1" as="geometry">
            <mxPoint x="-4090" y="-1390" as="sourcePoint" />
            <mxPoint x="-3708" y="-2168" as="targetPoint" />
          </mxGeometry>
        </mxCell>
        <mxCell id="Q6xU1axNeYU377LU5dXH-12" value="" style="endArrow=none;html=1;rounded=0;entryX=0;entryY=0.5;entryDx=0;entryDy=0;" parent="1" target="kd7WJNNmSs0O6YzTmHxb-9" edge="1">
          <mxGeometry width="50" height="50" relative="1" as="geometry">
            <mxPoint x="-3930" y="-1350" as="sourcePoint" />
            <mxPoint x="-3721" y="-1120" as="targetPoint" />
          </mxGeometry>
        </mxCell>
        <mxCell id="Q6xU1axNeYU377LU5dXH-14" value="" style="endArrow=none;html=1;rounded=0;entryX=0;entryY=0.5;entryDx=0;entryDy=0;exitX=0.5;exitY=0.5;exitDx=0;exitDy=0;exitPerimeter=0;" parent="1" source="kd7WJNNmSs0O6YzTmHxb-16" target="kd7WJNNmSs0O6YzTmHxb-8" edge="1">
          <mxGeometry width="50" height="50" relative="1" as="geometry">
            <mxPoint x="-4099" y="-1082" as="sourcePoint" />
            <mxPoint x="-3711" y="-1110" as="targetPoint" />
          </mxGeometry>
        </mxCell>
        <mxCell id="Q6xU1axNeYU377LU5dXH-15" value="" style="endArrow=none;html=1;rounded=0;entryX=0.5;entryY=0.5;entryDx=0;entryDy=0;exitX=1;exitY=0.5;exitDx=0;exitDy=0;entryPerimeter=0;" parent="1" source="kd7WJNNmSs0O6YzTmHxb-9" target="kd7WJNNmSs0O6YzTmHxb-34" edge="1">
          <mxGeometry width="50" height="50" relative="1" as="geometry">
            <mxPoint x="-2832.6400000000003" y="-1380" as="sourcePoint" />
            <mxPoint x="-1998.64" y="-1308" as="targetPoint" />
          </mxGeometry>
        </mxCell>
        <mxCell id="Q6xU1axNeYU377LU5dXH-16" value="" style="endArrow=none;html=1;rounded=0;entryX=0.5;entryY=0.5;entryDx=0;entryDy=0;exitX=1;exitY=0.5;exitDx=0;exitDy=0;entryPerimeter=0;" parent="1" source="kd7WJNNmSs0O6YzTmHxb-8" target="kd7WJNNmSs0O6YzTmHxb-34" edge="1">
          <mxGeometry width="50" height="50" relative="1" as="geometry">
            <mxPoint x="-2822.6400000000003" y="-1370" as="sourcePoint" />
            <mxPoint x="-1988.64" y="-1298" as="targetPoint" />
          </mxGeometry>
        </mxCell>
        <mxCell id="Q6xU1axNeYU377LU5dXH-18" value="" style="endArrow=none;html=1;rounded=0;entryX=0;entryY=0.5;entryDx=0;entryDy=0;exitX=0.5;exitY=0.5;exitDx=0;exitDy=0;exitPerimeter=0;" parent="1" source="kd7WJNNmSs0O6YzTmHxb-44" target="TTVpZ2c57f-uQKOhVj6A-23" edge="1">
          <mxGeometry width="50" height="50" relative="1" as="geometry">
            <mxPoint x="-4087" y="-681" as="sourcePoint" />
            <mxPoint x="-3713" y="-1109" as="targetPoint" />
          </mxGeometry>
        </mxCell>
        <mxCell id="Q6xU1axNeYU377LU5dXH-19" value="" style="endArrow=none;html=1;rounded=0;entryX=0;entryY=0.5;entryDx=0;entryDy=0;exitX=0.5;exitY=0.5;exitDx=0;exitDy=0;exitPerimeter=0;" parent="1" source="kd7WJNNmSs0O6YzTmHxb-44" target="kd7WJNNmSs0O6YzTmHxb-52" edge="1">
          <mxGeometry width="50" height="50" relative="1" as="geometry">
            <mxPoint x="-4120" y="-100" as="sourcePoint" />
            <mxPoint x="-3771" y="-418" as="targetPoint" />
          </mxGeometry>
        </mxCell>
        <mxCell id="Q6xU1axNeYU377LU5dXH-20" value="" style="endArrow=none;html=1;rounded=0;entryX=0;entryY=0.5;entryDx=0;entryDy=0;exitX=0.5;exitY=0.5;exitDx=0;exitDy=0;exitPerimeter=0;" parent="1" source="kd7WJNNmSs0O6YzTmHxb-44" target="kd7WJNNmSs0O6YzTmHxb-49" edge="1">
          <mxGeometry width="50" height="50" relative="1" as="geometry">
            <mxPoint x="-4200" y="-740" as="sourcePoint" />
            <mxPoint x="-3851" y="-1058" as="targetPoint" />
          </mxGeometry>
        </mxCell>
        <mxCell id="Q6xU1axNeYU377LU5dXH-21" value="" style="endArrow=none;html=1;rounded=0;entryX=0;entryY=0.5;entryDx=0;entryDy=0;exitX=0.5;exitY=0.5;exitDx=0;exitDy=0;exitPerimeter=0;" parent="1" source="kd7WJNNmSs0O6YzTmHxb-44" target="kd7WJNNmSs0O6YzTmHxb-48" edge="1">
          <mxGeometry width="50" height="50" relative="1" as="geometry">
            <mxPoint x="-4190" y="-730" as="sourcePoint" />
            <mxPoint x="-3841" y="-1048" as="targetPoint" />
          </mxGeometry>
        </mxCell>
        <mxCell id="Q6xU1axNeYU377LU5dXH-22" value="" style="endArrow=none;html=1;rounded=0;entryX=0;entryY=0.5;entryDx=0;entryDy=0;exitX=0.5;exitY=0.5;exitDx=0;exitDy=0;exitPerimeter=0;" parent="1" source="kd7WJNNmSs0O6YzTmHxb-44" target="kd7WJNNmSs0O6YzTmHxb-47" edge="1">
          <mxGeometry width="50" height="50" relative="1" as="geometry">
            <mxPoint x="-4180" y="-720" as="sourcePoint" />
            <mxPoint x="-3831" y="-1038" as="targetPoint" />
          </mxGeometry>
        </mxCell>
        <mxCell id="Q6xU1axNeYU377LU5dXH-23" value="" style="endArrow=none;html=1;rounded=0;entryX=0;entryY=0.5;entryDx=0;entryDy=0;exitX=0.5;exitY=0.5;exitDx=0;exitDy=0;exitPerimeter=0;" parent="1" source="kd7WJNNmSs0O6YzTmHxb-44" target="TTVpZ2c57f-uQKOhVj6A-41" edge="1">
          <mxGeometry width="50" height="50" relative="1" as="geometry">
            <mxPoint x="-4170" y="-710" as="sourcePoint" />
            <mxPoint x="-3821" y="-1028" as="targetPoint" />
          </mxGeometry>
        </mxCell>
        <mxCell id="Q6xU1axNeYU377LU5dXH-24" value="" style="endArrow=none;html=1;rounded=0;entryX=0;entryY=0.5;entryDx=0;entryDy=0;exitX=0.5;exitY=0.5;exitDx=0;exitDy=0;exitPerimeter=0;" parent="1" source="kd7WJNNmSs0O6YzTmHxb-44" target="kd7WJNNmSs0O6YzTmHxb-46" edge="1">
          <mxGeometry width="50" height="50" relative="1" as="geometry">
            <mxPoint x="-4160" y="-700" as="sourcePoint" />
            <mxPoint x="-3811" y="-1018" as="targetPoint" />
          </mxGeometry>
        </mxCell>
        <mxCell id="Q6xU1axNeYU377LU5dXH-25" value="" style="endArrow=none;html=1;rounded=0;entryX=0;entryY=0.5;entryDx=0;entryDy=0;exitX=0.5;exitY=0.5;exitDx=0;exitDy=0;exitPerimeter=0;" parent="1" source="kd7WJNNmSs0O6YzTmHxb-44" target="kd7WJNNmSs0O6YzTmHxb-45" edge="1">
          <mxGeometry width="50" height="50" relative="1" as="geometry">
            <mxPoint x="-4135" y="-705" as="sourcePoint" />
            <mxPoint x="-3786" y="-1023" as="targetPoint" />
          </mxGeometry>
        </mxCell>
        <mxCell id="Q6xU1axNeYU377LU5dXH-26" value="" style="endArrow=none;html=1;rounded=0;entryX=0;entryY=0.5;entryDx=0;entryDy=0;exitX=0.5;exitY=0.5;exitDx=0;exitDy=0;exitPerimeter=0;" parent="1" source="kd7WJNNmSs0O6YzTmHxb-44" target="kd7WJNNmSs0O6YzTmHxb-51" edge="1">
          <mxGeometry width="50" height="50" relative="1" as="geometry">
            <mxPoint x="-4110" y="-90" as="sourcePoint" />
            <mxPoint x="-3761" y="-408" as="targetPoint" />
          </mxGeometry>
        </mxCell>
        <mxCell id="Q6xU1axNeYU377LU5dXH-27" value="" style="endArrow=none;html=1;rounded=0;entryX=0;entryY=0.5;entryDx=0;entryDy=0;exitX=0.5;exitY=0.5;exitDx=0;exitDy=0;exitPerimeter=0;" parent="1" source="kd7WJNNmSs0O6YzTmHxb-44" target="kd7WJNNmSs0O6YzTmHxb-50" edge="1">
          <mxGeometry width="50" height="50" relative="1" as="geometry">
            <mxPoint x="-3900" y="-660" as="sourcePoint" />
            <mxPoint x="-3751" y="-398" as="targetPoint" />
          </mxGeometry>
        </mxCell>
        <mxCell id="Q6xU1axNeYU377LU5dXH-29" value="" style="endArrow=none;html=1;rounded=0;entryX=0;entryY=0.5;entryDx=0;entryDy=0;exitX=0.5;exitY=0.5;exitDx=0;exitDy=0;exitPerimeter=0;" parent="1" source="kd7WJNNmSs0O6YzTmHxb-16" target="kd7WJNNmSs0O6YzTmHxb-2" edge="1">
          <mxGeometry width="50" height="50" relative="1" as="geometry">
            <mxPoint x="-3890" y="-647" as="sourcePoint" />
            <mxPoint x="-3541" y="-965" as="targetPoint" />
          </mxGeometry>
        </mxCell>
        <mxCell id="Q6xU1axNeYU377LU5dXH-30" value="" style="endArrow=none;html=1;rounded=0;entryX=0;entryY=0.5;entryDx=0;entryDy=0;exitX=0.5;exitY=0.5;exitDx=0;exitDy=0;exitPerimeter=0;" parent="1" source="kd7WJNNmSs0O6YzTmHxb-44" target="kd7WJNNmSs0O6YzTmHxb-2" edge="1">
          <mxGeometry width="50" height="50" relative="1" as="geometry">
            <mxPoint x="-3890" y="-647" as="sourcePoint" />
            <mxPoint x="-3510" y="-795" as="targetPoint" />
          </mxGeometry>
        </mxCell>
        <mxCell id="Q6xU1axNeYU377LU5dXH-31" value="" style="endArrow=none;html=1;rounded=0;entryX=0.001;entryY=0.585;entryDx=0;entryDy=0;exitX=0.5;exitY=0.5;exitDx=0;exitDy=0;exitPerimeter=0;entryPerimeter=0;" parent="1" source="kd7WJNNmSs0O6YzTmHxb-69" target="quE06ytLvcIypXa5CY2y-6" edge="1">
          <mxGeometry width="50" height="50" relative="1" as="geometry">
            <mxPoint x="-4070" y="578" as="sourcePoint" />
            <mxPoint x="-3697" y="340" as="targetPoint" />
          </mxGeometry>
        </mxCell>
        <mxCell id="Q6xU1axNeYU377LU5dXH-32" value="" style="endArrow=none;html=1;rounded=0;entryX=0;entryY=0.5;entryDx=0;entryDy=0;exitX=0.5;exitY=0.5;exitDx=0;exitDy=0;exitPerimeter=0;" parent="1" source="kd7WJNNmSs0O6YzTmHxb-69" target="kd7WJNNmSs0O6YzTmHxb-73" edge="1">
          <mxGeometry width="50" height="50" relative="1" as="geometry">
            <mxPoint x="-4060" y="588" as="sourcePoint" />
            <mxPoint x="-3687" y="350" as="targetPoint" />
          </mxGeometry>
        </mxCell>
        <mxCell id="Q6xU1axNeYU377LU5dXH-33" value="" style="endArrow=none;html=1;rounded=0;entryX=0;entryY=0.5;entryDx=0;entryDy=0;exitX=0.5;exitY=0.5;exitDx=0;exitDy=0;exitPerimeter=0;" parent="1" source="kd7WJNNmSs0O6YzTmHxb-69" target="kd7WJNNmSs0O6YzTmHxb-70" edge="1">
          <mxGeometry width="50" height="50" relative="1" as="geometry">
            <mxPoint x="-4050" y="598" as="sourcePoint" />
            <mxPoint x="-3677" y="360" as="targetPoint" />
          </mxGeometry>
        </mxCell>
        <mxCell id="Q6xU1axNeYU377LU5dXH-34" value="" style="endArrow=none;html=1;rounded=0;entryX=0;entryY=0.5;entryDx=0;entryDy=0;exitX=0.5;exitY=0.5;exitDx=0;exitDy=0;exitPerimeter=0;" parent="1" source="kd7WJNNmSs0O6YzTmHxb-69" target="kd7WJNNmSs0O6YzTmHxb-78" edge="1">
          <mxGeometry width="50" height="50" relative="1" as="geometry">
            <mxPoint x="-4040" y="608" as="sourcePoint" />
            <mxPoint x="-3667" y="370" as="targetPoint" />
          </mxGeometry>
        </mxCell>
        <mxCell id="Q6xU1axNeYU377LU5dXH-35" value="" style="endArrow=none;html=1;rounded=0;entryX=0;entryY=0.5;entryDx=0;entryDy=0;exitX=0.5;exitY=0.5;exitDx=0;exitDy=0;exitPerimeter=0;" parent="1" source="kd7WJNNmSs0O6YzTmHxb-69" target="kd7WJNNmSs0O6YzTmHxb-2" edge="1">
          <mxGeometry width="50" height="50" relative="1" as="geometry">
            <mxPoint x="-4030" y="618" as="sourcePoint" />
            <mxPoint x="-3657" y="380" as="targetPoint" />
            <Array as="points">
              <mxPoint x="-2860" y="-10" />
            </Array>
          </mxGeometry>
        </mxCell>
        <mxCell id="Q6xU1axNeYU377LU5dXH-36" value="" style="endArrow=none;html=1;rounded=0;entryX=0.5;entryY=0.5;entryDx=0;entryDy=0;exitX=1;exitY=0.5;exitDx=0;exitDy=0;entryPerimeter=0;" parent="1" source="kd7WJNNmSs0O6YzTmHxb-73" target="kd7WJNNmSs0O6YzTmHxb-34" edge="1">
          <mxGeometry width="50" height="50" relative="1" as="geometry">
            <mxPoint x="-2430" y="420" as="sourcePoint" />
            <mxPoint x="-2177" y="456" as="targetPoint" />
          </mxGeometry>
        </mxCell>
      </root>
    </mxGraphModel>
  </diagram>
</mxfile>
